<svg version="1.0" xmlns="http://www.w3.org/2000/svg" width="400" height="225.333" viewBox="0 0 300 169">
  <path d="M30.95 27.75.8 54.5l.3 31c.15 17.05.3 42.6.3 56.75V168H126V55.3L95.4 28.15C78.6 13.2 64 1 62.95 1c-1 0-15.4 12.05-32 26.75m40.45-5.4C81.65 31.6 95.65 43.8 100.1 47.3l3.4 2.7H22.95l10.3-8.85C38.9 36.3 47.8 28.4 53 23.65c11.35-10.3 8.65-10.1 18.4-1.3m43.1 86.85V157h-103V61.5l51.5-.05h51.5z"/>
  <path d="m76.5 81-14 14.05L62 83.4l-.5-11.6-19 .05-19 .05v42.6l8.75-.2c10.3-.2 10.1-.45 3.7 5.5-4.75 4.4-5.25 5.4-8.5 16.2-5.4 18.05-5.05 18.5 10.75 13.3l10.65-3.5 11.65-11.05 11.6-11.05 3.25 3.15c4.75 4.6 5.55 4.25 19.45-8.95 15.9-15.15 15.35-14.15 10.3-19.3l-4.15-4.25 4-3.6c5.85-5.2 5.45-6.9-3.7-16-4.3-4.25-8.45-7.75-9.3-7.75-.8 0-7.75 6.3-15.45 14m20.25 7.7-3.7 3.75L89 88.5l-4-3.9 3.7-3.8 3.75-3.85 4 4.05 4 4zM40 85.5V90h-7.85l.4-4.25c.2-2.35.35-4.35.4-4.5S34.6 81 36.5 81c3.5 0 3.5 0 3.5 4.5m13 0V90h-8v-9h8zm30.35 8.35 3.8 3.85-11.85 11.4c-6.5 6.25-15.35 14.85-19.7 19.1l-7.85 7.7-4.2-4.2-4.2-4.2 19.6-18.7C81.5 87.2 78.6 89 83.35 93.85M40 101v5h-8V96h8zm13-2.25c-.05 5.75-1 7.25-4.6 7.25H45V96h4c3.7 0 4 .2 4 2.75m37 12.75c-8.35 8.35-10.2 9.6-11.55 7.4-1.35-2.15 16.75-19.1 18.5-17.4 1.35 1.35.55 2.45-6.95 10m-52.05 29.3c-3.95 1.6-4.25 1.35-2.85-2.7l1.15-3.2 2.45 2.3 2.45 2.3zM140 34v24h10V38h6v20h9.5V10H156v19h-6V10h-10z"/>
  <path d="M173.9 11.65c-8.6 5.35-8.55 40.75.1 45.05 6.7 3.35 15.95.5 18.3-5.65 2.25-5.8 1.45-32.55-1.05-35.95-3.8-5.1-12.05-6.75-17.35-3.45m9.5 8.95c.35.85.6 7.3.6 14.35 0 13.35-.75 15.85-4.35 14.45-1.7-.65-2.6-28.1-1-29.75 1.25-1.2 4.15-.65 4.75.95M196 34.05V58.1l4.2-.3 4.25-.3-.3-14.5c-.4-16.95.2-17.55 2.35-2.45C209.1 59 208.8 58 211.55 58c1.35 0 2.5-.35 2.5-.75.05-.4 1.1-7.05 2.4-14.75l2.35-14 .1 14.75L219 58h9V9.9l-6.25.3-6.25.3-1.4 10.75c-1.7 12.75-2.6 13.5-3.5 3-.35-4.25-.95-9.2-1.25-11L208.8 10H196zm34.95-23.8c0 .15-.1 10.8-.1 23.75l-.1 23.5 10.2.3 10.15.25-.3-4.75-.3-4.8-5.25.3-5.25.35V38h9v-9h-9v-9.7l5 .45 5 .5V10h-9.5c-5.2 0-9.5.1-9.55.25M140 87.35V111h10.25l-.45-9-.4-9h4.3c7.1 0 8.3-2.05 8.3-13.85 0-13.05-1.15-14.3-13.5-14.95l-8.5-.45zm12.8-14.5c2.45 1.55 1.15 11.6-1.55 11.95-2.1.3-2.25 0-2.25-5.55 0-7.05.75-8.35 3.8-6.4m11.45 14.55L164 111h10.1l-.4-9.55c-.4-9.65.2-11.6 2.85-9.4 1.05.9 1.45 3.5 1.45 10.05v8.9h9V99.9c0-10.25-.15-11.15-2-11.6-1.1-.3-2-.8-2-1.2 0-.35.9-1.2 2-1.85 3.15-2 2.9-14.1-.35-17.9-2.2-2.5-3.05-2.75-11.25-3.15l-8.9-.4zm12.7-13.95c1.95 2.35.95 10.05-1.35 10.05-1.65 0-2.45-5.1-1.65-11 .1-1 1.85-.45 3 .95m18.15-8.05c-4.45 2.5-5.05 4.95-5.05 22.7-.05 15.3.1 16.85 2 19.25 4.2 5.35 14.9 5.65 19.55.55 2.45-2.7 3.5-34.5 1.25-38.65-2.6-4.85-12.2-6.9-17.75-3.85m8.8 8c2.15 2.6 1 29-1.3 29.45-3.05.55-3.55-1.65-3.6-15.4 0-14.35 1.35-18.3 4.9-14.05m19.85 9.35-.25 18.75-3.75.3c-3.7.3-3.75.35-3.75 4.75V111h5.55c10.7 0 11.25-1.35 11.4-27.75l.1-19.25h-9zM235 87.5V111h18.1l-.3-4.25-.3-4.25-4.5-.3-4.5-.3.05-5.2.1-5.2 3.65-.3c5.85-.5 5.8-8.2-.05-8.2h-3.75V73h8.5v-9h-17zm22.4-20.1-3.4 3.4v16.15c0 20.6 1.2 23.4 10.55 24.6 8.5 1.1 13.45-4.25 13.45-14.5V91h-9v4.4c0 7.3-4.05 11.25-5.5 5.35-1.4-5.65-.05-27 1.8-28.15 2.3-1.45 3.65.6 3.7 5.65V82h9v-4.05c0-12.75-12.15-19-20.6-10.55m20.6-2.05c0 4.3 1.35 7.65 3.15 7.65 1.75 0 1.85 1.1 1.85 19v19h10V73h2.5c2.3 0 2.5-.35 2.5-4.5V64h-10c-7.8 0-10 .3-10 1.35M140 140.6V164h10.3l-.65-9-.65-9h4.95c7 0 8.05-1.8 8.05-13.75 0-10.25-2-14.2-7.2-14.3-1.25 0-5.1-.15-8.55-.4l-6.25-.35zm13.8-9c.3 5.15-1.45 8.35-3.75 6.95-2.35-1.5-1.25-12.7 1.2-12.35 1.95.25 2.3 1 2.55 5.4m11.15-14.4c-.05.15-.25 10.75-.5 23.55l-.5 23.25H181v-9h-8.2l.35-18.75.35-18.75-4.25-.3c-2.35-.2-4.3-.2-4.3 0m23.6 1.1c-.5 1.6-4.4 31.4-5.2 39.45l-.6 6.25H191v-4c0-3.8.15-4 3-4s3 .2 3 4v4h9.25l-.7-4.25c-.35-2.35-.9-6.05-1.15-8.25-.3-2.2-1.4-10.4-2.45-18.25-1.1-7.85-1.95-14.65-1.95-15.15 0-1.4-11.05-1.25-11.45.2m7 22.5c.65 7.95.6 8.2-1.5 8.2-1.85 0-2.15-.45-1.7-2.75.3-1.5.8-5.4 1.15-8.6.85-7.5 1.25-6.95 2.05 3.15m11.45-.35V164h8.25l-.45-13.5c-.55-16.15-.2-16.1 3.7.35l3 12.65 4.25.3 4.25.3V117h-8.15l.3 12.9c.2 7.15.15 12.7-.15 12.45-.25-.25-1.85-6-3.5-12.65l-3-12.2-4.25-.3-4.25-.3zm25.5-22.6c-.25.25-.5 10.8-.5 23.35v22.9l4.1-.3 4.15-.3-.2-12.95c-.2-15.55.1-15.5 4.05.8l3.1 12.65h7.8v-47.1l-3.75.3-3.75.3.35 12.75c.45 15.2 0 15.75-2.8 3.5-4.05-17.75-3.6-16.75-8.1-16.6-2.15.1-4.15.4-4.45.7m25.45-.35s-.1 10.45-.25 23.25l-.2 23.25H275v-9h-9v-11.25l4 .65 4 .6v-9h-8v-10h9.1l-.3-4.2-.3-4.2-8.25-.05c-4.55-.05-8.25-.05-8.3-.05m19.7.2c-.35.35-.65 10.9-.65 23.45V164h9v-10.05c0-9.1.2-10.05 1.75-9.75 1.5.3 1.8 1.7 2.05 10.05l.25 9.75H299v-10.25c-.05-10.75-.3-11.75-3.5-13.55-1.7-.95-1.75-1.15-.3-1.15 2.6-.05 3.8-3.25 3.8-10.05 0-8.4-2.45-10.95-10.7-11.05-3.2-.05-6.75-.3-7.9-.5s-2.4-.1-2.75.25m11.15 8.15c2 1.3 1.2 10.55-.95 10.95-1.35.25-1.7-.75-2-5.35-.4-6.75 0-7.5 2.95-5.6"/>
</svg>
